<?xml version="1.0" standalone="no"?>
<!DOCTYPE svg PUBLIC "-//W3C//DTD SVG 1.1//EN" "http://www.w3.org/Graphics/SVG/1.1/DTD/svg11.dtd" >
<!--
2013-9-30: Created.
-->
<svg>
<metadata>
Created by iconfont
</metadata>
<defs>

<font id="iconfont" horiz-adv-x="1024" >
  <font-face
    font-family="iconfont"
    font-weight="500"
    font-stretch="normal"
    units-per-em="1024"
    ascent="896"
    descent="-128"
  />
    <missing-glyph />
    
    <glyph glyph-name="epp-icon-Announcementmanagement" unicode="&#58895;" d="M632 8h-240A8 8 0 0 1 384 0v-32a32 32 0 0 1 32-32h192a32 32 0 0 1 32 32V0a8 8 0 0 1-8 8zM512 832a328.064 328.064 0 0 1-164.032-612.096v-115.904a32 32 0 0 1 32-32h264a32 32 0 0 1 32 32v115.84A328.064 328.064 0 0 1 512 832z m127.872-549.76l-35.84-20.864v-117.376H419.968V261.376l-35.84 20.8a256 256 0 1 0 255.808 0z"  horiz-adv-x="1024" />

    
    <glyph glyph-name="epp-icon-Accountcenter" unicode="&#58896;" d="M858.496 132.416a374.016 374.016 0 0 1-80.64 119.488 375.68 375.68 0 0 1-119.488 80.64l-1.152 0.448a247.936 247.936 0 1 1-290.432-0.128l-1.152-0.448c-44.8-18.944-85.056-46.016-119.552-80.64a375.68 375.68 0 0 1-110.08-257.6 8 8 0 0 1 8-8.192h60.032a8 8 0 0 1 7.936 7.808 298.112 298.112 0 0 0 87.808 204.288A298.048 298.048 0 0 0 512 286.08c80.192 0 155.52-31.232 212.224-87.936a298.112 298.112 0 0 0 87.744-204.288 7.936 7.936 0 0 1 8.064-7.808h59.968c4.48 0 8.128 3.712 8 8.192a372.672 372.672 0 0 1-29.44 138.24zM512 361.984a170.88 170.88 0 0 0-121.6 50.432 170.88 170.88 0 0 0-50.368 121.6c0 45.888 17.92 89.088 50.368 121.6A170.88 170.88 0 0 0 512 705.92c45.888 0 89.088-17.92 121.6-50.368a170.88 170.88 0 0 0 50.368-121.6 170.88 170.88 0 0 0-50.368-121.6 170.88 170.88 0 0 0-121.6-50.432z"  horiz-adv-x="1024" />

    
    <glyph glyph-name="epp-icon-Aftersales" unicode="&#58897;" d="M902.912 535.872v-406.144c0-71.68-57.792-134.144-129.088-134.144H251.52c-71.36 0-129.152 62.464-129.152 134.144V535.872c0 4.416 1.024 8.576 2.88 12.16l0.256 0.768L192.64 714.944a95.168 95.168 0 0 0 87.68 58.56h464.576c38.272 0 72.832-23.04 87.68-58.56l67.2-166.144 0.448-1.152a27.2 27.2 0 0 0 2.624-11.776z m-66.944-32.256H188.416v-373.888c0-19.968 7.872-39.04 21.888-53.12 14.016-14.08 33.024-22.016 52.864-22.016h498.048c19.84 0 38.848 7.936 52.864 22.016 14.08 14.08 21.888 33.152 21.888 53.12V503.616z m-60.352 184.704a40.768 40.768 0 0 1-37.568 25.088H285.952a40.768 40.768 0 0 1-37.568-25.088L196.096 563.2h631.808l-52.288 125.12zM515.584 404.928a24 24 0 0 1 7.296 24.448 25.92 25.92 0 0 1-19.2 17.92 27.84 27.84 0 0 1-25.984-7.168L397.312 363.712a26.88 26.88 0 0 1-6.4-30.656 30.08 30.08 0 0 1 27.712-17.28h158.72c26.24 0 50.368-13.12 63.488-34.432 13.12-21.312 13.12-47.552 0-68.864a74.304 74.304 0 0 0-63.488-34.432H410.688c-14.72 0-26.688-11.2-26.688-24.96 0-13.888 11.968-25.088 26.688-25.088H577.28C647.296 128 704 181.248 704 246.912c0 65.664-56.704 118.912-126.72 118.912H474.56l41.088 39.104z"  horiz-adv-x="1024" />

    
    <glyph glyph-name="epp-icon-complete" unicode="&#58898;" d="M512 832a448 448 0 1 1 0-896A448 448 0 0 1 512 832z m193.472-301.696l-210.56-292.032a31.808 31.808 0 0 0-51.712 0l-124.672 172.8a8 8 0 0 0 6.464 12.736h46.912c10.24 0 19.84-4.928 25.92-13.312L468.992 311.68l157.184 218.048a32 32 0 0 0 25.92 13.248h46.912c6.464 0 10.24-7.36 6.464-12.672z"  horiz-adv-x="1024" />

    
    <glyph glyph-name="epp-icon-Commoditymanagement" unicode="&#58899;" d="M464 752H160a16 16 0 0 1-16-16v-304c0-8.832 7.168-16 16-16h304a16 16 0 0 1 16 16V736a16 16 0 0 1-16 16z m-52.032-268.032H212.032V683.968h200.064v-199.936zM864 752H560a16 16 0 0 1-16-16v-304c0-8.832 7.232-16 16-16h304a16 16 0 0 1 16 16V736a16 16 0 0 1-16 16z m-52.032-268.032H612.032V683.968h199.936v-199.936zM464 352H160a16 16 0 0 1-16-16v-304c0-8.768 7.168-16 16-16h304a16 16 0 0 1 16 16V336a16 16 0 0 1-16 16z m-52.032-268.032H212.032V284.032h200.064v-200.064zM864 352H560a16 16 0 0 1-16-16v-304c0-8.768 7.232-16 16-16h304a16 16 0 0 1 16 16V336a16 16 0 0 1-16 16z m-52.032-268.032H612.032V284.032h199.936v-200.064z"  horiz-adv-x="1024" />

    
    <glyph glyph-name="epp-icon-Batchpayment" unicode="&#58900;" d="M832 832H296a8 8 0 0 1-8-8V768c0-4.416 3.584-8 8-8h496v-688c0-4.416 3.584-8 8-8h56a8 8 0 0 1 8 8V800A32 32 0 0 1 832 832z m-128-128H192a32 32 0 0 1-32-32v-530.688a32 32 0 0 1 9.408-22.592l173.312-173.312a33.088 33.088 0 0 1 7.36-5.504v-1.92h4.224c3.52-1.28 7.168-1.984 11.008-1.984H704a32 32 0 0 1 32 32v704A32 32 0 0 1 704 704zM350.016 39.808l-86.144 86.208H350.08v-86.208z m313.984-31.808H414.016v142.016a40 40 0 0 1-40 40H232V632h432v-624z"  horiz-adv-x="1024" />

    
    <glyph glyph-name="epp-icon-homepage" unicode="&#58901;" d="M928 768h-832a32 32 0 0 1-32-32v-496a32 32 0 0 1 32-32h380.032v-112H304a16 16 0 0 1-16-16v-48c0-4.416 3.584-8 8-8h432a8 8 0 0 1 8 8v48a16 16 0 0 1-16 16H547.968v112H928a32 32 0 0 1 32 32V736a32 32 0 0 1-32 32z m-40-488H136v416h752v-416z"  horiz-adv-x="1024" />

    
    <glyph glyph-name="epp-icon-Businessmanagement" unicode="&#58902;" d="M688 632A8 8 0 0 1 680 640h-384a8 8 0 0 1-8-8v-43.264c0-4.416 3.584-8 8-8h384a8 8 0 0 1 8 8v43.264z m-8-136.448h-384a8 8 0 0 1-8-8v-43.392c0-4.416 3.584-8 8-8h384a8 8 0 0 1 8 8v43.392a8 8 0 0 1-8 8zM480 352H296a8 8 0 0 1-8-8v-44.224c0-4.48 3.584-8 8-8H480a8 8 0 0 1 8 8v44.224A8 8 0 0 1 480 352z m-48-314.624H203.392V748.032h567.168v-344.064c0-4.352 3.648-8 8-8H832a8 8 0 0 1 8 8v384a32 32 0 0 1-32 32h-640a32 32 0 0 1-32-32v-784a32 32 0 0 1 32-32H432a8 8 0 0 1 8 8.064v49.344a8 8 0 0 1-8 8z m356.8 81.024a144 144 0 1 1-193.6 0 196.48 196.48 0 0 1-99.2-162.112c-0.192-4.48 3.52-8.32 8-8.32h48.128c4.16 0 7.68 3.328 8 7.68a132.224 132.224 0 0 0 131.84 124.352c70.336 0 128-55.232 131.904-124.416a8 8 0 0 1 8-7.552h48.128c4.608 0 8.192 3.776 8 8.32a196.16 196.16 0 0 1-99.2 162.048z m-96.768 186.624a80 80 0 1 0 0-160 80 80 0 0 0 0 160z"  horiz-adv-x="1024" />

    
    <glyph glyph-name="epp-icon-Errorfailure" unicode="&#58903;" d="M512 384m-448 0a448 448 0 1 1 896 0 448 448 0 1 1-896 0ZM689.792 523.008L554.048 387.2 689.792 251.51999999999998l-45.248-45.248L508.8 341.952 372.992 206.20799999999997l-45.248 45.248L463.552 387.2 327.68 523.008l45.248 45.248L508.8 432.448 644.48 568.3199999999999l45.248-45.248z"  horiz-adv-x="1024" />

    
    <glyph glyph-name="epp-icon-Contactcustomerservice" unicode="&#58904;" d="M512 832c203.072 0 381.248-165.184 386.88-364.8l0.192-10.56v-77.888h16.512c43.52 0 78.72-34.944 78.72-78.016v-155.904c0-43.072-35.2-77.952-78.72-77.952h-16.512c0-65.664-52.288-128.32-126.72-135.36l-7.36-0.64-93.248-5.504a1345.92 1345.92 0 0 0-46.336-1.92c-10.88-30.08-39.936-51.456-74.048-51.456-43.52 0-78.72 34.88-78.72 77.952 0 43.072 35.2 77.952 78.72 77.952a78.72 78.72 0 0 0 74.688-52.992l15.36 0.384 25.792 1.28 93.248 5.568c45.824 2.688 83.072 33.92 86.08 78.592l0.256 6.144v389.76c0 182.976-160.768 325.184-334.784 325.184S182.72 644.992 177.408 466.56l-0.192-9.92v-389.76H110.08c-43.52 0-78.784 34.88-78.784 77.952V300.736c0 43.072 35.2 77.952 78.72 77.952l13.44 0.064V456.64C123.392 661.12 305.344 832 512 832z m39.36-843.52c-21.76 0-37.312-17.024-37.312-38.528 0-21.504 15.616-36.48 37.312-36.48 21.76 0 37.248 14.976 37.248 36.48 0 21.504-15.488 38.592-37.248 38.592z"  horiz-adv-x="1024" />

    
    <glyph glyph-name="epp-icon-Hidedescription" unicode="&#58905;" d="M512 832a448 448 0 1 0 0-896A448 448 0 0 0 512 832z m0-76.032a372.032 372.032 0 0 1 0-743.936A372.032 372.032 0 0 1 512 755.968z m0-551.936a40 40 0 1 0 0-80 40 40 0 0 0 0 80z m0 416c41.984 0 81.6-14.4 111.616-40.704 31.168-27.328 48.384-64 48.256-103.296 0-57.856-38.08-109.824-97.088-132.48a48.32 48.32 0 0 1-30.912-44.8v-22.72a8 8 0 0 0-8-8.064h-48a8 8 0 0 0-8 8.064v21.44a111.744 111.744 0 0 0 72 105.792c34.112 13.12 56.128 41.6 56.128 72.704 0 44.16-43.072 80-96 80s-96-35.84-96-80v-7.552a8 8 0 0 0-8-8h-48a8 8 0 0 0-8 8v7.616c0 39.296 17.216 75.968 48.384 103.296A169.088 169.088 0 0 0 512 620.032z"  horiz-adv-x="1024" />

    
    <glyph glyph-name="epp-icon-MarketingCenter" unicode="&#58906;" d="M883.584 483.2l-253.888 36.928-113.536 230.08a32.128 32.128 0 0 1-57.408 0L345.28 520.128l-253.888-36.928a32 32 0 0 1-17.728-54.592l183.68-179.136-43.392-252.864a32 32 0 0 1 46.4-33.728l227.136 119.424 227.072-119.424a32 32 0 0 1 46.4 33.728l-43.392 252.864 183.68 179.136a32 32 0 0 1-17.664 54.592z m-243.328-208.512l36.096-210.304-188.864 99.2-188.928-99.264 36.096 210.304-152.768 148.992 211.2 30.72 94.4 191.232 94.4-191.296 211.2-30.72-152.832-148.864z"  horiz-adv-x="1024" />

    
    <glyph glyph-name="epp-icon-Ordermanagementadjudication" unicode="&#58907;" d="M616.768 832c6.848 0 13.376-2.176 18.816-6.144l3.84-3.2 215.168-215.232a32.192 32.192 0 0 0 8.96-17.664l0.448-5.12V-32a32 32 0 0 0-26.24-31.488L832-64H192a32 32 0 0 0-31.488 26.24L160-32v832a32 32 0 0 0 26.24 31.488L192 832h424.768zM534.08 760H232v-752h560V502.016H576a41.984 41.984 0 0 0-41.6 35.776L534.08 544V760z m67.968-1.792v-188.16h188.16l-188.16 188.16z"  horiz-adv-x="1024" />

    
    <glyph glyph-name="epp-icon-RuleCenter" unicode="&#58908;" d="M854.592 607.36L639.424 822.656A32 32 0 0 1 616.768 832H192a32 32 0 0 1-32-32v-832a32 32 0 0 1 32-32h640a32 32 0 0 1 32 32V584.704a32.192 32.192 0 0 1-9.408 22.72z m-64.384-37.376h-188.16v188.16l188.16-188.16z m1.792-561.984h-560V760h302.016V544c0-23.168 18.752-41.984 41.984-41.984h216v-494.016z m-288 270.016H320a8 8 0 0 1-8-8v-48c0-4.416 3.584-8 8-8h184A8 8 0 0 1 512 222.016v48a8 8 0 0 1-8 8z m-192 128v-48c0-4.416 3.584-8 8-8h384a8 8 0 0 1 8 8v48A8 8 0 0 1 704 414.016H320a8 8 0 0 1-8-8z"  horiz-adv-x="1024" />

    
    <glyph glyph-name="epp-icon-NotificationCenter" unicode="&#58909;" d="M816 128h-24V468.032a279.936 279.936 0 0 1-240 277.12V784a40 40 0 1 1-80 0v-38.912a279.936 279.936 0 0 1-240-277.12V128H208a32 32 0 0 1-32-32v-32c0-4.416 3.584-8 8-8H400a112.064 112.064 0 0 1 224 0h216A8 8 0 0 1 848 64v32a32 32 0 0 1-32 32zM512 8a48 48 0 0 0-48 48h96a48 48 0 0 0-48-48zM304 128V468.032c0 55.552 21.632 107.776 60.928 147.072A206.592 206.592 0 0 0 512 676.032c55.616 0 107.776-21.632 147.072-60.928 39.296-39.296 60.928-91.52 60.928-147.072V128h-416z"  horiz-adv-x="1024" />

    
    <glyph glyph-name="epp-icon-Platformcustomerservice" unicode="&#58910;" d="M464 384a48 48 0 1 1 96 0 48 48 0 0 1-96 0z m200 0a48 48 0 1 1 96 0 48 48 0 0 1-96 0z m-400 0a48 48 0 1 1 96 0 48 48 0 0 1-96 0z m661.184 173.632A448.128 448.128 0 0 1 512 832h-1.984a446.976 446.976 0 0 1-446.08-450.112 449.472 449.472 0 0 1 48.064-199.872v-152c0-25.408 20.608-46.016 46.016-46.016h152.064c61.632-31.104 130.56-47.68 199.936-48h2.112c59.84 0 117.952 11.584 172.672 34.304a444.48 444.48 0 0 1 142.784 95.168A447.04 447.04 0 0 1 960 381.952a446.4 446.4 0 0 1-34.816 175.68z m-151.04-438.016A370.048 370.048 0 0 0 512 12.032h-1.728a373.312 373.312 0 0 0-173.056 43.52l-8.384 4.48h-140.8v140.8l-4.48 8.32a373.376 373.376 0 0 0-43.52 173.12 369.728 369.728 0 0 0 107.52 263.808 369.216 369.216 0 0 0 262.848 109.888h1.728a370.176 370.176 0 0 0 263.168-108.864 370.176 370.176 0 0 0 108.928-264.832 370.56 370.56 0 0 0-110.08-262.656z"  horiz-adv-x="1024" />

    
    <glyph glyph-name="epp-icon-LogisticsCentre" unicode="&#58911;" d="M792.96 768H594.24c-74.56 0-137.536-48-157.44-115.968H310.912c-49.664 0-94.4-28.16-117.632-71.232l-114.304-222.08A129.024 129.024 0 0 1 64 297.536v-142.464c0-54.72 44.736-99.456 99.392-99.456h33.152c0-64.64 51.392-115.968 115.968-115.968 64.64 0 115.968 51.392 115.968 115.968h165.696c0-64.64 51.392-115.968 115.968-115.968 64.64 0 115.968 51.392 115.968 115.968h33.152c54.656 0 99.392 44.8 99.392 99.456v447.36A166.144 166.144 0 0 1 793.024 768zM494.72 602.304c0 54.72 44.8 99.392 99.456 99.392h198.848c54.656 0 99.392-44.672 99.392-99.392v-132.48c0-54.72-44.8-99.456-99.392-99.456H594.176A99.712 99.712 0 0 0 494.784 469.76V602.304z m-182.208-596.48a48.832 48.832 0 0 0-49.664 49.728c0 28.16 21.504 49.728 49.664 49.728s49.728-21.568 49.728-49.728-21.568-49.664-49.728-49.664z m397.632 0a48.832 48.832 0 0 0-49.664 49.728c0 28.16 21.504 49.728 49.664 49.728s49.728-21.568 49.728-49.728-21.568-49.664-49.728-49.664z m149.12 116.032h-54.656a117.696 117.696 0 0 1-94.464 49.664c-38.08 0-74.56-19.84-94.4-49.664H406.976a117.696 117.696 0 0 1-94.464 49.664c-38.08 0-74.56-19.84-94.4-49.664h-54.72a33.28 33.28 0 0 0-33.088 33.152V297.472c0 9.92 3.264 21.504 6.592 29.824l114.304 222.016a69.12 69.12 0 0 0 59.648 36.48h117.632V469.76a166.144 166.144 0 0 1 165.696-165.696h198.848c38.08 0 71.232 13.312 99.392 33.152v-182.208a33.28 33.28 0 0 0-33.152-33.152zM345.6 453.184H279.424a33.28 33.28 0 0 1-33.088-33.088 33.28 33.28 0 0 1 33.088-33.152h66.304a33.28 33.28 0 0 1 33.152 33.152 33.28 33.28 0 0 1-33.152 33.088z"  horiz-adv-x="1024" />

    
    <glyph glyph-name="epp-icon-Selectionmanagement" unicode="&#58912;" d="M836.928 413.568V64a64 64 0 0 0-64-64H251.072a64 64 0 0 0-64 64V413.568h649.856z m-59.072-59.136H246.144v-295.36h531.712V354.432zM832 590.72a64 64 0 0 0 64-64v-172.288H128V526.784a64 64 0 0 0 64 64h640z m4.928-59.008H187.072v-118.144h649.856V531.712zM659.712 768a118.144 118.144 0 1 0 0-236.288h-177.28V620.288A147.712 147.712 0 0 0 630.144 768z m0-59.072h-29.568c-48.96 0-88.576-39.68-88.576-88.64v-29.504h118.144a59.072 59.072 0 0 1 0 118.144zM364.288 768a118.144 118.144 0 0 1 0-236.288h177.28V620.288A147.712 147.712 0 0 1 393.856 768z m0-59.072h29.568c48.96 0 88.576-39.68 88.576-88.64v-29.504H364.288a59.072 59.072 0 0 0 0 118.144zM512 590.72c16.32 0 29.568-13.184 29.568-29.44V0h-59.136V561.28c0 16.256 13.248 29.44 29.568 29.44z"  horiz-adv-x="1024" />

    
    <glyph glyph-name="epp-icon-PenaltyCenter" unicode="&#58913;" d="M813.952 768c28.544 0 38.848-2.944 49.28-8.576 10.432-5.568 18.624-13.76 24.192-24.192 5.632-10.432 8.576-20.736 8.576-49.28v-411.904c0-28.544-2.944-38.848-8.576-49.28a58.176 58.176 0 0 0-24.192-24.192c-10.432-5.632-20.736-8.576-49.28-8.576H210.048c-28.544 0-38.848 2.944-49.28 8.576a58.176 58.176 0 0 0-24.192 24.192c-5.632 10.432-8.576 20.736-8.576 49.28V685.952c0 28.544 2.944 38.848 8.576 49.28a58.176 58.176 0 0 0 24.192 24.192c10.432 5.632 20.736 8.576 49.28 8.576h603.904z m12.8-70.336h-630.4v-434.432h630.4V697.6zM184.32 67.392h653.184a32 32 0 0 0 32-32v-7.232a32 32 0 0 0-32-32H184.32a32 32 0 0 0-32 32v7.232a32 32 0 0 0 32 32zM473.344 256H550.4v-256H473.344zM183.488 519.04h216.128c32.64 38.656 54.4 64.832 65.472 78.464 16.64 20.352 47.68 24.832 64.128 0 3.712-8.128 21.952-53.248 54.72-135.296 14.912 20.096 25.28 33.6 31.232 40.448 8.896 10.24 16.896 16.384 35.072 16.384H832v-77.824h-166.912c-22.016-30.72-40.448-55.552-55.296-74.432-22.4-28.352-57.024-26.752-68.8 0a5946.24 5946.24 0 0 0-55.36 135.872 1192.96 1192.96 0 0 0-32.576-40.448c-15.104-17.92-30.464-20.992-38.848-20.992H178.88l4.608 77.824z"  horiz-adv-x="1024" />

    
    <glyph glyph-name="epp-icon-Storemanagement" unicode="&#58914;" d="M946.56 391.04L560.064 777.152l-25.92 25.856a31.488 31.488 0 0 1-44.416 0L77.504 391.04a63.936 63.936 0 0 1-18.816-45.952c0.384-35.2 29.696-63.36 64.896-63.36h42.496v-325.632h691.84V281.728h43.392a63.68 63.68 0 0 1 45.312 18.752c12.096 12.16 18.688 28.16 18.688 45.312a63.616 63.616 0 0 1-18.816 45.184z m-378.56-363.072h-112v204.032h112v-204.032z m217.92 325.76v-325.76H632V256a40 40 0 0 1-40 40h-160a40 40 0 0 1-40-40v-228.032H238.08v325.76h-96l370.048 369.664 23.04-23.04 346.88-346.624H785.92z"  horiz-adv-x="1024" />

    
    <glyph glyph-name="epp-icon-shopmanagement" unicode="&#58915;" d="M832 832a32 32 0 0 0 31.488-26.24l0.512-5.76v-832a32 32 0 0 0-26.24-31.488L832-64H192a32 32 0 0 0-31.488 26.24L160-32v832a32 32 0 0 0 26.24 31.488L192 832h640zM512 760H232v-752h559.872V760h-64v-296.512a16 16 0 0 0-22.464-14.592l-2.88 1.728-81.408 59.392-83.84-59.904a15.872 15.872 0 0 0-24.96 9.728L512 463.04v296.96z m156.032 0h-96v-211.392l49.472 35.392 46.464-33.92v209.92z"  horiz-adv-x="1024" />

    
    <glyph glyph-name="epp-icon-delivery" unicode="&#58916;" d="M512 384m-512 0a512 512 0 1 1 1024 0 512 512 0 1 1-1024 0ZM494.475636 593.454545l18.082909-0.046545h153.460364c7.68 0 14.522182-4.864 17.058909-12.125091l0.069818-0.232727 37.236364-110.615273a18.269091 18.269091 0 0 0 1.070545-6.213818V192.698182c0-10.030545-8.098909-18.176-18.082909-18.176H320.628364a18.129455 18.129455 0 0 0-18.082909 18.152727V464.244364c0 2.187636 0.372364 4.282182 1.093818 6.213818l37.213091 110.615273a18.082909 18.082909 0 0 0 16.896 12.357818h136.727272V593.454545z m190.813091-147.409454H338.711273v-235.170909h346.577454V446.045091z m-190.906182 111.010909h-123.438545l-25.134545-74.682182h148.386909l0.186181 74.705455z m158.673455 0h-122.507636l-0.186182-74.682182h147.805091l-25.134546 74.705455zM442.181818 301.079273h209.454546V267.636364h-209.454546v33.442909zM651.170909 360.727273v-33.442909h-112.081454V360.727273h112.081454z"  horiz-adv-x="1024" />

    
    <glyph glyph-name="epp-icon-Import" unicode="&#58917;" d="M512 384m-512 0a512 512 0 1 1 1024 0 512 512 0 1 1-1024 0ZM302.545455 508.718545a14.661818 14.661818 0 0 0 14.522181 14.917819 14.661818 14.661818 0 0 0 14.545455-14.917819v-255.394909c0-26.949818 22.178909-48.919273 49.221818-48.919272h256.279273a14.661818 14.661818 0 0 0 14.522182-14.941091 14.661818 14.661818 0 0 0-14.522182-14.917818H380.834909C337.687273 174.545455 302.545455 210.199273 302.545455 253.742545V508.718545M491.962182 341.969455l155.159273 155.159272a15.592727 15.592727 0 0 1 0 21.992728 15.592727 15.592727 0 0 1-21.992728 0l-155.159272-155.159273a15.592727 15.592727 0 0 1 0-21.992727c6.050909-6.027636 15.965091-6.027636 21.992727 0M469.992727 346.228364v68.514909c0 8.773818-6.190545 15.802182-13.893818 15.802182-7.726545 0-13.917091-7.028364-13.917091-15.825455V314.181818h79.173818c7.726545 0 13.917091 7.028364 13.917091 15.825455-0.395636 9.192727-6.562909 16.221091-14.289454 16.221091h-50.990546zM673.070545 273.384727a19.362909 19.362909 0 0 1 19.36291 19.362909V545.047273a19.362909 19.362909 0 0 1-19.36291 19.362909H420.770909a19.362909 19.362909 0 0 1-19.362909-19.362909V292.770909c0-10.891636 8.866909-19.362909 19.362909-19.362909H673.047273z m0-29.021091H420.770909A48.523636 48.523636 0 0 0 372.363636 292.747636V545.047273c0 26.624 21.76 48.384 48.384 48.384H673.047273c26.624 0 48.384-21.76 48.384-48.384V292.770909A48.267636 48.267636 0 0 0 673.070545 244.363636z"  horiz-adv-x="1024" />

    
    <glyph glyph-name="epp-icon-241" unicode="&#58918;" d="M512 384m-512 0a512 512 0 1 1 1024 0 512 512 0 1 1-1024 0ZM394.705455 515.444364c24.576 0 44.683636-7.074909 60.695272-21.224728 15.639273-14.149818 23.831273-33.140364 23.831273-56.226909s-8.936727-43.938909-26.065455-62.557091c-9.309091-9.681455-27.554909-24.203636-55.109818-42.821818-33.885091-22.714182-53.248-43.194182-58.088727-61.067636h139.636364V244.363636h-177.245091c0 24.203636 8.564364 46.173091 26.437818 65.908364 10.426182 11.915636 29.416727 27.927273 57.716364 47.290182 20.852364 14.894545 34.629818 25.693091 41.704727 33.140363 13.405091 14.522182 20.48 30.533818 20.48 47.662546 0 16.384-4.840727 28.672-14.522182 37.608727-9.681455 8.936727-23.458909 13.405091-40.587636 13.405091-18.245818 0-32.395636-5.957818-42.077091-18.618182-10.426182-11.915636-16.011636-29.789091-16.384-53.248h-30.533818c0 29.789091 8.564364 53.620364 24.948363 71.121455 16.384 17.873455 38.353455 26.810182 65.163637 26.810182z m250.97309-5.213091h28.672v-180.596364h43.194182v-24.948364h-43.194182V244.363636h-29.044363v60.322909h-133.678546V333.730909l134.050909 176.500364z m-1.489454-39.842909l-106.868364-140.753455h107.985455v140.753455h-1.117091z"  horiz-adv-x="1024" />

    


  </font>
</defs>
</svg>
